<svg xmlns="http://www.w3.org/2000/svg" width="64" height="64" viewBox="0 0 64 64" fill="none">
  <rect width="64" height="64" rx="8" fill="url(#paint0_linear_718_126)"/>
    <g clip-path="url(#clip0_718_126)">
      <path d="M16.7842 38.0801H7.88409C7.63457 38.0819 7.38795 38.1329 7.15813 38.23C6.92831 38.3272 6.71986 38.4688 6.54473 38.6465C6.3696 38.8242 6.23116 39.0347 6.13738 39.2659C6.0436 39.4972 5.99625 39.7446 5.9981 39.9941V48.8651C5.99464 49.3689 6.19143 49.8533 6.5451 50.212C6.89876 50.5708 7.38034 50.7744 7.88409 50.7781H16.7842C17.2878 50.7741 17.7692 50.5704 18.1226 50.2117C18.4761 49.853 18.6725 49.3687 18.669 48.8651V39.9941C18.6727 39.4903 18.4763 39.0058 18.1229 38.6469C17.7694 38.2879 17.288 38.084 16.7842 38.0801" fill="white"/>
      <path d="M57.0665 12.5C57.57 12.504 58.0514 12.7077 58.4048 13.0664C58.7583 13.4251 58.9549 13.9095 58.9515 14.413V48.8651C58.9549 49.3686 58.7583 49.853 58.4048 50.2117C58.0514 50.5704 57.57 50.7741 57.0665 50.778H23.0823C22.5786 50.7743 22.0969 50.5707 21.7432 50.212C21.3895 49.8532 21.1929 49.3688 21.1963 48.8651V27.0341C21.2104 26.5548 21.4057 26.0987 21.743 25.7579C22.0802 25.4172 22.5344 25.217 23.0135 25.198L31.9854 25.187C32.4788 25.1822 32.951 24.9856 33.302 24.6389C33.6531 24.2921 33.8554 23.8224 33.8663 23.329V14.337C33.8798 13.8575 34.0751 13.4011 34.4124 13.0601C34.7497 12.719 35.2041 12.5188 35.6834 12.5H57.0665Z" fill="white"/>
    </g>
  <defs>
  <linearGradient id="paint0_linear_718_126" x1="0" y1="0" x2="77.2493" y2="32.709" gradientUnits="userSpaceOnUse">
    <stop stop-color="#D946EF"/>
    <stop offset="1" stop-color="#7E22CE"/>
  </linearGradient>
  <clipPath id="clip0_718_126">
    <rect width="54" height="39" fill="white" transform="translate(5 12.5)"/>
  </clipPath>
  </defs>
</svg>
