<svg width="1547" height="842" viewBox="0 0 1547 842" fill="none" xmlns="http://www.w3.org/2000/svg">
<path d="M264.271 257.145C220.352 257.145 185.52 273.047 159.017 304.093H157.503V77.6826H38.6185V635H151.445V594.867H152.959C177.191 626.671 212.023 641.815 258.971 641.815C309.705 641.815 351.352 624.399 383.913 588.809C416.474 553.977 433.133 507.786 433.133 450.237C433.133 394.203 416.474 348.012 384.67 311.665C352.867 275.318 312.734 257.145 264.271 257.145ZM234.74 538.075C210.508 538.075 190.821 530.503 175.676 513.844C160.532 497.942 152.959 476.74 152.959 450.237C152.959 425.249 160.532 404.046 175.676 387.388C190.821 370.729 210.508 362.399 233.982 362.399C256.699 362.399 275.63 370.729 290.774 387.388C305.919 404.046 313.491 424.492 313.491 450.237C313.491 476.74 305.919 497.942 291.532 513.844C276.387 530.503 257.456 538.075 234.74 538.075ZM497.201 635H614.571V77.6826H497.201V635ZM879.244 642.572C937.551 642.572 985.256 625.156 1023.12 588.809C1060.22 553.22 1079.15 507.029 1079.15 450.237C1079.15 393.445 1060.22 347.255 1023.12 310.908C985.256 275.318 937.551 257.145 879.244 257.145C820.181 257.145 771.718 275.318 734.614 311.665C697.51 348.012 679.337 394.203 679.337 450.237C679.337 507.029 697.51 553.22 734.614 588.809C771.718 625.156 820.181 642.572 879.244 642.572ZM879.244 537.318C855.77 537.318 836.84 528.989 821.695 512.33C806.551 495.671 798.978 475.226 798.978 450.237C798.978 425.249 805.794 404.804 820.938 388.145C836.083 371.486 855.013 363.156 879.244 363.156C901.961 363.156 921.649 371.486 936.793 387.388C951.938 404.046 959.51 424.492 959.51 450.237C959.51 475.983 951.181 496.428 936.036 513.087C920.892 529.746 901.961 537.318 879.244 537.318ZM1391.13 264.717V301.821H1390.38C1361.6 272.289 1326.77 257.145 1284.37 257.145C1237.42 257.145 1198.04 275.318 1166.24 310.908C1134.43 346.497 1119.29 391.174 1119.29 445.694C1119.29 498.7 1135.19 541.861 1167 575.936C1198.8 610.769 1240.45 627.428 1290.42 627.428C1332.83 627.428 1366.15 614.555 1391.89 587.295H1394.16V622.127C1394.16 642.572 1385.08 659.231 1368.42 672.861C1351.76 686.491 1327.53 692.549 1297.24 692.549C1257.86 692.549 1220.76 681.948 1184.41 660.746L1157.91 756.156C1200.31 780.387 1251.05 791.746 1310.11 791.746C1443.38 791.746 1510.02 723.595 1510.02 586.538V264.717H1391.13ZM1318.44 522.174C1295.72 522.174 1276.79 515.358 1261.65 500.214C1246.5 485.827 1238.93 466.896 1238.93 442.665C1238.93 419.948 1246.5 401.018 1261.65 385.873C1276.79 370.729 1295.72 363.156 1318.44 363.156C1340.4 363.156 1358.57 370.729 1373.72 385.873C1388.86 401.018 1396.43 419.948 1396.43 442.665C1396.43 466.139 1388.86 485.07 1374.48 500.214C1359.33 515.358 1341.16 522.174 1318.44 522.174Z" fill="white"/>
</svg>
