<svg width="1166" height="842" viewBox="0 0 1166 842" fill="none" xmlns="http://www.w3.org/2000/svg">
<path fill-rule="evenodd" clip-rule="evenodd" d="M1153.1 12.4522C1145.32 4.56629 1134.74 0.0871418 1123.67 0H653.573C643.035 0.413811 633.046 4.8151 625.631 12.3127C618.215 19.8103 613.922 29.8452 613.624 40.3866V238.072C613.385 248.918 608.938 259.245 601.22 266.868C593.502 274.492 583.122 278.813 572.274 278.919L375.029 279.161C364.497 279.579 354.512 283.979 347.098 291.471C339.683 298.963 335.389 308.99 335.08 319.526V799.472C335.004 810.547 339.328 821.197 347.103 829.084C354.878 836.97 365.468 841.446 376.543 841.528H1123.67C1134.74 841.441 1145.32 836.963 1153.1 829.077C1160.87 821.191 1165.19 810.543 1165.11 799.472V42.0571C1165.19 30.9863 1160.87 20.3382 1153.1 12.4522ZM42.4209 562.367H238.087C249.162 562.454 259.745 566.937 267.516 574.827C275.288 582.718 279.605 593.371 279.523 604.446V799.472C279.599 810.543 275.282 821.191 267.511 829.077C259.741 836.963 249.158 841.441 238.087 841.528H42.4209C31.3463 841.447 20.759 836.97 12.9837 829.084C5.20844 821.197 0.882099 810.547 0.958173 799.472V604.446C0.917605 598.96 1.95846 593.521 4.02024 588.438C6.08202 583.354 9.12542 578.727 12.9756 574.819C16.8259 570.912 21.4086 567.801 26.4611 565.664C31.5136 563.528 36.9354 562.407 42.4209 562.367Z" fill="url(#paint0_linear_16_39)"/>
<defs>
<linearGradient id="paint0_linear_16_39" x1="0.957031" y1="0" x2="1234.73" y2="722.685" gradientUnits="userSpaceOnUse">
<stop stop-color="#D946EF"/>
<stop offset="1" stop-color="#7E22CE"/>
</linearGradient>
</defs>
</svg>
